<svg xmlns="http://www.w3.org/2000/svg" class="icon" viewBox="0 0 300 300"><rect width="300" height="300" x="0" y="0" fill="#5BB0D2" class="logo-background-square"/><g id="157f68ed-54f7-4cfa-94f2-f2a5666a1343" fill="#fff" stroke="none"><path style="text-indent:0;text-transform:none;block-progression:tb" d="M50 11.031l-1.625 2.813-3.719 6.469-.531.937.531.938 25.75 44.593h-24.75l-.531.938-3.719 6.5L39.781 77H43l41.875.031L88.094 77l-1.625-2.813-34.844-60.343L50 11.03zM43.094 23l-1.625 2.813L6.625 86.186 5 88.97h11.813l.53-.938 25.75-44.594 11.844 20.47.5.937H67.25l-1.625-2.781-20.906-36.25L43.094 23zm-.125 24.125l-1.594 2.813-20.938 36.218-1.625 2.813H95l-1.625-2.813-3.719-6.469-.562-.937H36.53l11.813-20.469.531-.937-.531-.938-3.75-6.468-1.625-2.813z" color="#000" overflow="visible" transform="matrix(2.4444444444444446,0,0,2.4444444444444446,27.777777777777764,27.777775446573884)"/></g></svg>